<?xml version="1.0" encoding="UTF-8"?>
<!-- Generator: Adobe Illustrator 23.0.1, SVG Export Plug-In . SVG Version: 6.00 Build 0)  -->
<svg version="1.1" id="Layer_1" xmlns="http://www.w3.org/2000/svg" xmlns:xlink="http://www.w3.org/1999/xlink" x="0px" y="0px" viewBox="0 0 300 300" style="enable-background:new 0 0 300 300;" xml:space="preserve">
<style type="text/css">
	.st0{fill:#FFFFFF;}
</style>
<polygon class="st0" points="148.2,294.3 22.4,227.8 22.4,74.4 147.3,6 275.3,74.2 275.3,227.8 "/>
<title>ee1</title>
<polygon points="98,162.5 110.9,169.2 111,156 98,149.9 "/>
<polygon points="81.4,153.9 93.8,160.4 93.8,147.8 81.5,142.1 "/>
<polygon points="80.9,184.4 93.7,191.2 93.8,165.1 81.2,158.5 "/>
<polygon points="97.9,193.2 110.5,199.8 110.8,173.9 98,167.1 "/>
<path d="M262.4,219.1V82.6L147.3,22l-112,60.6v136.3L148.4,278l37.7-19.5l33.1,18.9l39.2-20.2l-33.3-18.8L262.4,219.1z M188.8,254  l-0.2-83.7l29.6-13.9l0.2,82.2L188.8,254z M148.3,143.8V254l-94-49.2V96.6l93.2-50.3l93.9,49.4L148.3,143.8z"/>
</svg>