<?xml version="1.0" encoding="utf-8"?>
<!-- Generator: Adobe Illustrator 23.0.1, SVG Export Plug-In . SVG Version: 6.00 Build 0)  -->
<svg version="1.1" id="Layer_1" xmlns="http://www.w3.org/2000/svg" xmlns:xlink="http://www.w3.org/1999/xlink" x="0px" y="0px"
	 viewBox="0 0 56.69 28.35" style="enable-background:new 0 0 56.69 28.35;" xml:space="preserve">
<style type="text/css">
	.st0{fill:#253B80;}
	.st1{fill:#179BD7;}
	.st2{fill:#222D65;}
	.st3{fill:#FFFFFF;}
</style>
<g>
	<rect width="56.69" height="28.35"/>
</g>
<path class="st0" d="M24.82,8.63c0.07-0.43,0.44-0.74,0.88-0.74l5.52,0.03c0.65,0,1.26,0.05,1.82,0.14
	c0.38,0.06,0.75,0.15,1.11,0.27c0.27,0.09,0.53,0.2,0.76,0.33c0.29-1.76,0.02-2.96-0.93-4.06c-1.04-1.2-2.94-1.73-5.36-1.74
	l-7.04-0.04c-0.5,0-0.92,0.35-1,0.84l-3.05,18.58c-0.05,0.33,0.17,0.64,0.5,0.7c0.03,0.01,0.06,0.01,0.09,0.01l4.35,0.03l1.13-6.92
	C23.6,16.06,24.82,8.63,24.82,8.63z"/>
<path class="st1" d="M34.91,8.67c-0.02,0.13-0.05,0.27-0.07,0.41c-0.96,4.76-4.15,6.39-8.21,6.37l-2.07-0.01
	c-0.5,0-0.92,0.35-1,0.84l-1.1,6.7l-0.31,1.9c-0.05,0.29,0.15,0.56,0.44,0.61c0.03,0,0.05,0.01,0.08,0.01l3.67,0.02
	c0.43,0,0.8-0.31,0.88-0.74l0.04-0.19l0.72-4.38l0.05-0.24c0.07-0.43,0.44-0.74,0.88-0.74l0.55,0c3.55,0.02,6.34-1.4,7.18-5.57
	c0.35-1.74,0.18-3.2-0.71-4.23C35.63,9.13,35.29,8.86,34.91,8.67z"/>
<path class="st2" d="M33.94,8.27c-0.3-0.09-0.6-0.16-0.9-0.21c-0.6-0.1-1.21-0.14-1.82-0.14L25.7,7.89c-0.43,0-0.81,0.31-0.88,0.74
	l-1.22,7.43l-0.04,0.22c0.08-0.49,0.5-0.85,1-0.84l2.07,0.01c4.06,0.03,7.25-1.6,8.21-6.37c0.03-0.14,0.05-0.28,0.07-0.41
	c-0.24-0.13-0.5-0.24-0.76-0.33C34.08,8.32,34.01,8.29,33.94,8.27z"/>
<g>
	<path class="st3" d="M7.01,10.42h2.82c0.54,0,1,0.08,1.4,0.25s0.72,0.4,0.98,0.7c0.26,0.3,0.45,0.64,0.58,1.04
		c0.13,0.4,0.19,0.83,0.19,1.28c0,0.75-0.12,1.45-0.37,2.09c-0.25,0.64-0.59,1.19-1.04,1.66c-0.44,0.47-0.97,0.83-1.57,1.1
		c-0.6,0.26-1.26,0.4-1.97,0.4H5.2L7.01,10.42z M8.22,17.98c0.56,0,1.06-0.11,1.51-0.34c0.45-0.22,0.83-0.53,1.15-0.91
		c0.32-0.38,0.56-0.82,0.73-1.31c0.17-0.5,0.25-1.02,0.25-1.56c0-0.36-0.05-0.69-0.14-1c-0.1-0.3-0.24-0.57-0.42-0.79
		s-0.42-0.39-0.7-0.52c-0.28-0.12-0.6-0.19-0.97-0.19H7.89l-1.4,6.6H8.22z"/>
	<path class="st3" d="M16.8,19c-0.48,0-0.91-0.1-1.28-0.29c-0.38-0.2-0.69-0.46-0.95-0.78c-0.26-0.32-0.45-0.7-0.58-1.12
		s-0.2-0.86-0.2-1.32c0-0.65,0.14-1.28,0.41-1.9c0.27-0.62,0.63-1.16,1.09-1.64c0.45-0.48,0.97-0.86,1.56-1.15s1.19-0.43,1.82-0.43
		c0.48,0,0.91,0.1,1.28,0.3c0.37,0.2,0.68,0.46,0.94,0.79c0.25,0.33,0.44,0.7,0.58,1.13c0.13,0.42,0.2,0.86,0.2,1.32
		c0,0.65-0.13,1.28-0.4,1.89c-0.27,0.61-0.63,1.16-1.08,1.63c-0.45,0.48-0.97,0.86-1.55,1.15S17.43,19,16.8,19z M17.02,18.02
		c0.49,0,0.95-0.12,1.38-0.37c0.43-0.24,0.81-0.56,1.12-0.95s0.57-0.82,0.75-1.3c0.18-0.48,0.28-0.96,0.28-1.43
		c0-0.35-0.05-0.69-0.14-1.01c-0.09-0.32-0.23-0.6-0.41-0.84c-0.18-0.24-0.4-0.43-0.67-0.58c-0.26-0.14-0.56-0.22-0.9-0.22
		c-0.5,0-0.96,0.12-1.39,0.36c-0.43,0.24-0.8,0.55-1.12,0.94c-0.32,0.39-0.57,0.82-0.76,1.3c-0.18,0.48-0.28,0.96-0.28,1.44
		c0,0.35,0.05,0.69,0.14,1.01c0.09,0.32,0.23,0.6,0.41,0.84c0.18,0.24,0.4,0.43,0.67,0.58C16.37,17.95,16.67,18.02,17.02,18.02z"/>
	<path class="st3" d="M23.97,10.42h0.84l3.53,6.64l1.4-6.62h1.08l-1.81,8.51h-0.9l-3.49-6.5l-1.38,6.5h-1.08L23.97,10.42z"/>
	<path class="st3" d="M35.32,10.42h0.92l1.47,8.52h-1.15l-0.41-2.5h-3.34l-1.45,2.5h-1.15L35.32,10.42z M36.11,15.6l-0.59-3.94
		l-2.32,3.94H36.11z"/>
	<path class="st3" d="M41.55,11.38h-2.77l0.2-0.96h6.62l-0.2,0.96h-2.77l-1.61,7.56h-1.08L41.55,11.38z"/>
	<path class="st3" d="M46.83,10.42h5.4l-0.2,0.96H47.7l-0.59,2.76h3.76l-0.19,0.9h-3.76l-0.62,2.94h4.43l-0.2,0.96h-5.51
		L46.83,10.42z"/>
</g>
<g>
</g>
<g>
</g>
<g>
</g>
<g>
</g>
<g>
</g>
<g>
</g>
<g>
</g>
<g>
</g>
<g>
</g>
<g>
</g>
<g>
</g>
<g>
</g>
<g>
</g>
<g>
</g>
<g>
</g>
</svg>
