<?xml version="1.0" encoding="utf-8"?>
<!-- Generator: Adobe Illustrator 23.0.1, SVG Export Plug-In . SVG Version: 6.00 Build 0)  -->
<svg version="1.1" id="Layer_1" xmlns="http://www.w3.org/2000/svg" xmlns:xlink="http://www.w3.org/1999/xlink" x="0px" y="0px"
	 viewBox="0 0 512 512" style="enable-background:new 0 0 512 512;" xml:space="preserve">
<style type="text/css">
	.st0{fill:none;stroke:#FFFFFF;stroke-width:0.5;stroke-miterlimit:10;}
</style>
<g>
	<line class="st0" x1="255.7" y1="496.5" x2="346.1" y2="146.1"/>
	<line class="st0" x1="323.8" y1="430.3" x2="414.3" y2="80.3"/>
	<line class="st0" x1="188" y1="430.7" x2="414.3" y2="80.3"/>
	<line class="st0" x1="391.9" y1="364.2" x2="482" y2="14.9"/>
	<line class="st0" x1="256.1" y1="496.5" x2="165.4" y2="145.7"/>
	<line class="st0" x1="255.7" y1="430.4" x2="414.3" y2="80.3"/>
	<line class="st0" x1="256.1" y1="430.4" x2="98.2" y2="80.9"/>
	<line class="st0" x1="255.7" y1="364.3" x2="482" y2="14.9"/>
	<line class="st0" x1="188" y1="364.3" x2="482" y2="14.9"/>
	<line class="st0" x1="256" y1="364.3" x2="29.9" y2="15"/>
	<line class="st0" x1="188" y1="430.4" x2="98.2" y2="80.9"/>
	<line class="st0" x1="324.1" y1="430.7" x2="98.2" y2="80.9"/>
	<line class="st0" x1="323.8" y1="364.3" x2="29.9" y2="15"/>
	<line class="st0" x1="392.2" y1="364.6" x2="29.9" y2="15"/>
	<line class="st0" x1="323.8" y1="364.3" x2="482" y2="14.9"/>
	<line class="st0" x1="188" y1="364.3" x2="29.9" y2="15"/>
	<line class="st0" x1="119.9" y1="364.3" x2="29.9" y2="15"/>
	<line class="st0" x1="119.9" y1="364.6" x2="482" y2="14.9"/>
</g>
</svg>
