<?xml version="1.0"?>
<svg xmlns="http://www.w3.org/2000/svg" height="512px" viewBox="-61 0 512 512.00067" width="512px" class=""><g><path d="m75 512c41.351562 0 75-33.644531 75-75v-230.597656l209.996094-79.746094v160.730469c-12.574219-9.519531-28.050782-15.382813-45-15.382813-41.351563 0-75 33.644532-75 74.996094 0 41.355469 33.648437 75 75 75 41.351562 0 75-33.644531 75-75v-331.996094c0-4.921875-2.417969-9.519531-6.460938-12.332031-4.011718-2.78125-9.183594-3.457031-13.8125-1.714844l-239.996094 90c-5.84375 2.195313-9.726562 7.792969-9.726562 14.046875v272.378906c-12.574219-9.515624-28.054688-15.382812-45-15.382812-41.351562 0-75 33.648438-75 75s33.648438 75 75 75zm0 0" data-original="#000000" class="active-path" data-old_color="#000000" fill="#FFFFFF"/></g> </svg>
